<!--?xml version="1.0" standalone="no"?-->
              <svg id="sw-js-blob-svg" viewBox="0 0 100 100" xmlns="http://www.w3.org/2000/svg" version="1.1">
                    <defs> 
                        <linearGradient id="sw-gradient" x1="0" x2="1" y1="1" y2="0">
                            <stop id="stop1" stop-color="rgba(248, 117, 55, 1)" offset="0%"></stop>
                            <stop id="stop2" stop-color="rgba(251, 168, 31, 1)" offset="100%"></stop>
                        </linearGradient>
                    </defs>
                <path fill="url(#sw-gradient)" d="M18.9,-23.3C24.6,-17.7,29.4,-11.9,32.3,-4.4C35.2,3.1,36.2,12.3,32.9,20.1C29.7,27.9,22.3,34.3,13.5,37.8C4.7,41.3,-5.4,41.9,-14.4,38.9C-23.4,35.9,-31.4,29.3,-36.1,20.9C-40.8,12.6,-42.3,2.4,-40.7,-7.3C-39.1,-17,-34.5,-26.3,-27.2,-31.6C-19.9,-36.9,-10,-38.1,-1.7,-36.1C6.6,-34.1,13.2,-28.8,18.9,-23.3Z" width="100%" height="100%" transform="translate(50 50)" stroke-width="0" style="transition: all 0.3s ease 0s;"></path>
              </svg>